<svg xmlns="http://www.w3.org/2000/svg" xmlns:xlink="http://www.w3.org/1999/xlink" width="1920" zoomAndPan="magnify" viewBox="0 0 1440 809.999993" height="1080" preserveAspectRatio="xMidYMid meet" version="1.0"><path fill="#31c3b5" d="M 323.613281 175.175781 C 332.5625 178.296875 332.5625 178.296875 340.261719 181.832031 C 339.640625 190.765625 339.640625 190.765625 336.933594 201.800781 C 329.441406 210.445312 329.441406 210.445312 320.28125 218.652344 C 311.132812 226.601562 311.132812 226.601562 303.632812 235.082031 C 300.726562 243.984375 300.726562 243.984375 300.300781 251.722656 C 308.039062 251.316406 308.039062 251.316406 316.953125 248.394531 C 325.9375 240.1875 333.800781 231.324219 341.925781 222.273438 L 350.253906 215.113281 C 359.203125 213.667969 359.203125 213.667969 366.902344 215.113281 L 373.5625 221.769531 C 374.753906 229.625 374.753906 229.625 373.5625 238.410156 C 368.421875 245.480469 368.421875 245.480469 361.132812 252.5625 L 352.917969 260.671875 L 343.933594 269.296875 L 334.792969 278.285156 C 326.777344 286.160156 318.734375 294.011719 310.660156 301.835938 C 299.308594 312.851562 287.988281 323.902344 276.703125 334.984375 C 270.695312 340.882812 264.664062 346.757812 258.605469 352.601562 L 250.324219 360.710938 L 243.015625 367.792969 C 236.601562 375.371094 233.519531 382.144531 230.375 391.503906 C 237.6875 393.414062 237.6875 393.414062 247.023438 391.503906 C 255.855469 384.929688 263.125 376.941406 270.644531 368.933594 L 277.394531 361.996094 C 284.519531 354.675781 291.582031 347.300781 298.636719 339.917969 C 307.921875 330.203125 317.253906 320.53125 326.628906 310.898438 L 333.054688 304.058594 C 338.582031 298.382812 343.914062 293.101562 350.253906 288.332031 C 359.636719 286.503906 359.636719 286.503906 366.902344 288.332031 L 373.5625 294.988281 C 374.785156 302.867188 374.785156 302.867188 373.5625 311.628906 C 367.96875 318.726562 367.96875 318.726562 360.660156 325.355469 C 352.472656 332.890625 346.484375 338.90625 340.261719 348.238281 L 333.601562 348.238281 L 331.132812 354.046875 C 324.785156 365.414062 315.378906 373.058594 305.898438 381.84375 L 300.300781 388.175781 L 300.300781 398.160156 C 308.097656 397.535156 308.097656 397.535156 316.953125 394.832031 C 324.632812 388.71875 324.632812 388.71875 331.71875 380.789062 L 339.929688 372.222656 C 345.558594 366.222656 351.175781 360.21875 356.789062 354.207031 L 365.015625 345.636719 L 372.410156 337.726562 C 380.222656 331.597656 380.222656 331.597656 390.757812 328.808594 L 400.203125 328.269531 C 406.65625 332.222656 406.65625 332.222656 410.191406 338.253906 C 409.984375 344.492188 409.984375 344.492188 406.863281 351.566406 C 402.609375 357.261719 398.167969 362.808594 393.542969 368.207031 L 400.203125 381.519531 C 420.011719 367.914062 435.882812 352.488281 451.84375 334.523438 L 460.140625 328.269531 C 471.148438 328.984375 471.148438 328.984375 480.121094 331.597656 C 482.410156 339.085938 482.410156 339.085938 483.449219 348.238281 C 478.871094 355.105469 478.871094 355.105469 473.460938 361.550781 C 471.113281 368.695312 471.113281 368.695312 470.132812 374.863281 C 479.636719 374.207031 479.636719 374.207031 490.109375 371.535156 C 494.6875 367.234375 499.128906 362.796875 503.429688 358.222656 C 510.300781 355.105469 510.300781 355.105469 516.75 354.894531 C 522.578125 358.636719 522.578125 358.636719 526.742188 364.878906 C 528.277344 372.167969 528.277344 372.167969 526.742188 381.519531 C 520.847656 389.984375 513.644531 397.019531 506.316406 404.257812 L 499.96875 410.679688 C 495.527344 415.144531 491.0625 419.585938 486.582031 424.007812 C 479.753906 430.800781 472.976562 437.644531 466.253906 444.539062 C 461.925781 448.867188 457.589844 453.1875 453.25 457.507812 L 447.15625 463.746094 C 441.679688 469.070312 436.5625 473.839844 430.171875 478.035156 C 418.738281 479.316406 418.738281 479.316406 410.191406 478.035156 L 403.53125 461.394531 C 415.214844 447.730469 426.871094 434.628906 440.160156 422.5 C 445.980469 417.113281 445.980469 417.113281 450.152344 411.472656 C 450.589844 401.921875 450.589844 401.921875 446.820312 394.832031 C 436.375 399.457031 429.324219 404.847656 421.289062 412.9375 L 414.222656 420.003906 L 406.707031 427.621094 L 398.921875 435.425781 C 390.730469 443.648438 382.5625 451.898438 374.394531 460.144531 L 357.730469 476.890625 C 344.121094 490.566406 330.53125 504.261719 316.953125 517.972656 L 323.613281 531.285156 C 335.382812 524.699219 335.382812 524.699219 345.257812 515.6875 L 350.253906 511.316406 C 358.785156 510.277344 358.785156 510.277344 366.902344 511.316406 L 373.5625 517.972656 C 375.210938 525.339844 375.210938 525.339844 373.5625 534.613281 C 367.464844 542.332031 360.902344 549.628906 353.867188 556.503906 L 347.742188 562.679688 C 343.453125 566.972656 339.148438 571.246094 334.820312 575.5 C 328.238281 582.015625 321.703125 588.582031 315.222656 595.195312 C 311.042969 599.359375 306.855469 603.519531 302.667969 607.675781 C 300.734375 609.644531 298.796875 611.613281 296.800781 613.640625 C 287.570312 622.609375 281.90625 627.335938 269.328125 631.023438 L 260.34375 631.128906 C 254.097656 626.347656 254.097656 626.347656 250.351562 621.144531 C 253.636719 609.796875 258.164062 602.691406 266.519531 594.609375 C 272.089844 589.390625 277.710938 584.226562 283.386719 579.121094 C 289.492188 573.523438 289.492188 573.523438 296.972656 564.566406 C 296.0625 557.410156 296.0625 557.410156 293.644531 551.253906 L 283.652344 551.253906 C 274.917969 559.40625 267.003906 568.140625 258.910156 576.929688 C 250.351562 584.535156 250.351562 584.535156 241.585938 587.664062 C 238.984375 587.730469 236.382812 587.796875 233.703125 587.859375 L 223.714844 581.203125 C 222.347656 573.257812 222.347656 573.257812 223.714844 564.5625 C 228.722656 558.050781 228.722656 558.050781 235.578125 551.875 C 244.59375 543.660156 253.070312 534.925781 261.003906 525.664062 C 272.753906 512.179688 285.09375 499.457031 297.792969 486.871094 L 304.410156 480.269531 C 311.292969 473.417969 318.179688 466.570312 325.070312 459.726562 L 339.191406 445.660156 C 350.636719 434.257812 362.097656 422.859375 373.5625 411.472656 L 370.230469 401.488281 C 362.6875 402.84375 357.710938 404.195312 351.605469 408.9375 L 346.4375 414.199219 C 343.507812 417.148438 343.507812 417.148438 340.511719 420.160156 L 334.226562 426.632812 L 327.660156 433.261719 C 320.734375 440.257812 313.847656 447.285156 306.960938 454.320312 C 300.070312 461.328125 293.171875 468.324219 286.261719 475.3125 C 281.96875 479.660156 277.683594 484.019531 273.410156 488.390625 C 253.328125 508.792969 253.328125 508.792969 243.691406 514.644531 C 234.746094 513.8125 234.746094 513.8125 227.042969 511.316406 L 223.714844 507.988281 C 223.605469 498.730469 223.925781 493.234375 227.042969 484.691406 C 234.492188 475.136719 243.246094 467.210938 252.226562 459.109375 C 256.910156 454.828125 261.558594 450.515625 266.179688 446.171875 L 272.460938 440.492188 L 276.992188 434.769531 L 276.992188 421.457031 C 269.050781 422.828125 264.152344 424.417969 257.679688 429.335938 L 251.679688 435.070312 L 245.070312 441.316406 L 238.28125 447.871094 L 231.414062 454.394531 C 223.199219 462.175781 215.082031 470.054688 207.0625 478.035156 C 194.992188 476.785156 194.992188 476.785156 183.753906 474.707031 C 182.089844 466.386719 182.089844 466.386719 183.753906 454.738281 C 190.347656 447.335938 197.339844 440.960938 204.890625 434.535156 L 210.394531 428.113281 C 209.917969 420.75 209.917969 420.75 207.0625 414.800781 C 193.890625 419.203125 186.515625 424.351562 177.226562 434.601562 C 174.828125 437.144531 172.429688 439.695312 169.96875 442.316406 C 165 447.695312 160.0625 453.101562 155.164062 458.542969 C 148.308594 465.765625 141.9375 472.285156 133.804688 478.035156 C 124.324219 479.367188 119.742188 477.886719 110.492188 474.707031 C 108.242188 468.800781 108.242188 468.800781 107.164062 461.394531 C 110.761719 455.445312 110.761719 455.445312 116.519531 449.339844 L 123.097656 442.296875 L 130.472656 434.769531 L 138.105469 426.976562 C 146.671875 418.378906 155.289062 409.832031 163.957031 401.332031 L 173.464844 391.917969 C 186.789062 378.703125 200.140625 365.511719 213.515625 352.34375 C 220.15625 345.808594 226.777344 339.265625 233.386719 332.707031 C 239.585938 326.550781 245.808594 320.417969 252.050781 314.304688 L 260.507812 305.882812 L 267.980469 298.515625 C 273.914062 292.089844 273.914062 292.089844 276.355469 284.738281 C 277.503906 277.613281 277.503906 277.613281 273.664062 268.363281 L 267.691406 273.574219 C 265.0625 275.769531 262.429688 277.960938 259.71875 280.21875 L 251.875 286.886719 L 243.691406 291.660156 C 234.574219 290.917969 234.574219 290.917969 227.042969 288.332031 L 223.714844 285.003906 C 222.296875 277.796875 222.296875 277.796875 223.714844 268.363281 C 229.691406 260.886719 236.128906 253.832031 243.027344 247.195312 L 249.003906 241.25 C 253.175781 237.113281 257.367188 232.996094 261.578125 228.902344 C 268.015625 222.613281 274.417969 216.285156 280.785156 209.925781 C 284.847656 205.914062 288.914062 201.90625 292.980469 197.898438 L 298.785156 192.15625 C 306.984375 184.199219 312.625 178.835938 323.613281 175.175781 " fill-opacity="1" fill-rule="nonzero"/><path fill="#33d5c4" d="M 323.613281 175.175781 C 332.5625 178.296875 332.5625 178.296875 340.261719 181.832031 C 339.640625 190.765625 339.640625 190.765625 336.933594 201.800781 C 329.441406 210.445312 329.441406 210.445312 320.28125 218.652344 C 311.132812 226.601562 311.132812 226.601562 303.632812 235.082031 C 300.726562 243.984375 300.726562 243.984375 300.300781 251.722656 C 308.039062 251.316406 308.039062 251.316406 316.953125 248.394531 C 325.9375 240.1875 333.800781 231.324219 341.925781 222.273438 L 350.253906 215.113281 C 359.203125 213.667969 359.203125 213.667969 366.902344 215.113281 L 373.5625 221.769531 C 374.78125 229.585938 374.78125 229.585938 373.5625 238.410156 C 368.253906 245.71875 368.253906 245.71875 360.726562 253.128906 L 352.238281 261.605469 L 342.964844 270.613281 L 333.5625 279.941406 C 325.3125 288.109375 317.035156 296.246094 308.726562 304.351562 C 300.261719 312.640625 291.84375 320.980469 283.417969 329.3125 C 266.890625 345.652344 250.316406 361.941406 233.703125 378.191406 L 224.519531 374.679688 C 213.433594 370.507812 213.433594 370.507812 200.820312 374.445312 L 190.414062 378.191406 C 209.34375 355.242188 230.46875 334.816406 251.855469 314.171875 L 260.199219 305.972656 L 267.792969 298.605469 C 273.910156 292.121094 273.910156 292.121094 276.375 284.734375 C 277.5 277.613281 277.5 277.613281 273.664062 268.363281 L 267.691406 273.574219 C 265.0625 275.769531 262.429688 277.960938 259.71875 280.21875 L 251.875 286.886719 L 243.691406 291.660156 C 234.574219 290.917969 234.574219 290.917969 227.042969 288.332031 L 223.714844 285.003906 C 222.296875 277.796875 222.296875 277.796875 223.714844 268.363281 C 229.691406 260.886719 236.128906 253.832031 243.027344 247.195312 L 249.003906 241.25 C 253.175781 237.113281 257.367188 232.996094 261.578125 228.902344 C 268.015625 222.613281 274.417969 216.285156 280.785156 209.925781 C 284.847656 205.914062 288.914062 201.90625 292.980469 197.898438 L 298.785156 192.15625 C 306.984375 184.199219 312.625 178.835938 323.613281 175.175781 " fill-opacity="1" fill-rule="nonzero"/><path fill="#2e7b70" d="M 343.59375 448.082031 L 356.910156 448.082031 C 354.871094 457.9375 352.734375 462.660156 346.921875 471.378906 L 360.242188 474.707031 L 316.953125 517.972656 L 323.613281 531.285156 C 335.382812 524.699219 335.382812 524.699219 345.257812 515.6875 L 350.253906 511.316406 C 358.785156 510.277344 358.785156 510.277344 366.902344 511.316406 L 373.5625 517.972656 C 375.210938 525.339844 375.210938 525.339844 373.5625 534.613281 C 367.464844 542.332031 360.902344 549.628906 353.867188 556.503906 L 347.742188 562.679688 C 343.453125 566.972656 339.148438 571.246094 334.820312 575.5 C 328.238281 582.015625 321.703125 588.582031 315.222656 595.195312 C 311.042969 599.359375 306.855469 603.519531 302.667969 607.675781 C 300.734375 609.644531 298.796875 611.613281 296.800781 613.640625 C 287.570312 622.609375 281.90625 627.335938 269.328125 631.023438 L 260.34375 631.128906 C 254.097656 626.347656 254.097656 626.347656 250.351562 621.144531 C 253.636719 609.796875 258.164062 602.691406 266.519531 594.609375 C 272.089844 589.390625 277.710938 584.226562 283.386719 579.121094 C 289.492188 573.523438 289.492188 573.523438 296.972656 564.566406 C 296.0625 557.410156 296.0625 557.410156 293.644531 551.253906 L 283.652344 551.253906 C 274.917969 559.40625 267.003906 568.140625 258.910156 576.929688 C 250.351562 584.535156 250.351562 584.535156 241.585938 587.664062 C 238.984375 587.730469 236.382812 587.796875 233.703125 587.859375 L 223.714844 581.203125 C 222.292969 573.3125 222.292969 573.3125 223.714844 564.5625 C 229.191406 557.582031 229.191406 557.582031 236.410156 551.042969 C 246.554688 541.738281 246.554688 541.738281 255.179688 531.085938 C 260.34375 524.628906 260.34375 524.628906 268.007812 520.207031 C 277.824219 514.132812 284.75 507.4375 292.71875 499.109375 L 301.480469 490.105469 C 307.519531 483.835938 313.546875 477.550781 319.5625 471.253906 L 328.308594 462.292969 L 336.234375 454.03125 Z M 343.59375 448.082031 " fill-opacity="1" fill-rule="nonzero"/><path fill="#41d5c6" d="M 386.882812 328.269531 C 393.570312 329.203125 400.234375 330.300781 406.863281 331.597656 C 409.570312 338.667969 409.570312 338.667969 410.191406 348.238281 C 405.382812 355.894531 399.839844 361.605469 393.542969 368.207031 C 398.738281 380.960938 406.957031 388.753906 416.851562 398.160156 C 420.191406 401.480469 423.519531 404.808594 426.839844 408.144531 C 416.699219 418.738281 406.503906 429.277344 396.25 439.761719 L 387.523438 448.898438 L 379.039062 457.546875 L 371.269531 465.574219 L 363.570312 471.378906 C 354.28125 472.242188 354.28125 472.242188 346.921875 471.378906 L 350.046875 465.347656 C 353.921875 457.765625 353.921875 457.765625 356.910156 448.082031 C 342.277344 452.777344 334.046875 459.777344 323.339844 470.679688 L 318.707031 475.347656 C 313.871094 480.246094 309.054688 485.164062 304.253906 490.097656 L 294.378906 500.109375 C 286.339844 508.261719 278.324219 516.433594 270.332031 524.628906 L 263.671875 521.300781 L 373.5625 411.472656 L 370.230469 401.488281 C 364.164062 401.9375 364.164062 401.9375 356.910156 404.816406 C 348.289062 412.476562 348.289062 412.476562 339.847656 421.667969 C 334.566406 427.273438 329.15625 432.75 323.613281 438.097656 L 316.953125 438.097656 C 306.960938 416.464844 306.960938 416.464844 306.960938 401.488281 C 311.152344 396.730469 311.152344 396.730469 317.367188 391.917969 C 334.1875 378.132812 349.195312 362.785156 364.40625 347.277344 L 370.308594 341.296875 L 375.609375 335.882812 C 380.222656 331.597656 380.222656 331.597656 386.882812 328.269531 " fill-opacity="1" fill-rule="nonzero"/><path fill="#21ead1" d="M 1102.824219 354.894531 C 1111.71875 354.425781 1120.554688 354.753906 1129.464844 354.894531 C 1139.160156 375.726562 1148.347656 396.496094 1156.105469 418.128906 C 1162.882812 411.355469 1164.996094 407.164062 1168.515625 398.445312 L 1171.636719 390.773438 L 1174.835938 382.765625 L 1178.113281 374.679688 C 1180.78125 368.089844 1183.433594 361.496094 1186.074219 354.894531 L 1216.046875 354.894531 L 1216.046875 454.738281 L 1192.734375 454.738281 L 1189.40625 401.488281 L 1169.425781 454.738281 L 1146.117188 454.738281 L 1126.136719 401.488281 L 1122.804688 454.738281 L 1099.496094 454.738281 C 1099.414062 441.054688 1099.351562 427.371094 1099.3125 413.683594 C 1099.296875 409.027344 1099.273438 404.367188 1099.246094 399.707031 C 1099.207031 393.023438 1099.183594 386.339844 1099.167969 379.660156 L 1099.117188 367.460938 L 1099.496094 358.222656 Z M 1102.824219 354.894531 " fill-opacity="1" fill-rule="nonzero"/><path fill="#3fb1a4" d="M 796.46875 354.894531 L 819.777344 354.894531 C 827.414062 362.199219 827.414062 362.199219 833.722656 371.949219 L 840.109375 381.546875 L 846.417969 391.503906 L 859.738281 411.472656 L 863.066406 354.894531 L 886.378906 354.894531 L 886.378906 454.738281 L 859.738281 454.738281 C 853.351562 449.546875 853.351562 449.546875 849.125 442.359375 L 844.375 434.625 L 839.757812 426.449219 L 834.828125 418.273438 C 830.851562 411.609375 826.945312 404.90625 823.109375 398.160156 L 819.777344 454.738281 L 796.46875 454.738281 Z M 796.46875 354.894531 " fill-opacity="1" fill-rule="nonzero"/><path fill="#1eead1" d="M 1315.945312 354.894531 L 1341.335938 354.273438 L 1349.214844 353.996094 C 1361.300781 353.851562 1369.035156 354.816406 1380.476562 359.402344 C 1390.390625 365.621094 1395.996094 371.855469 1402.523438 381.519531 C 1406.65625 393.914062 1407.199219 405.246094 1405.855469 418.128906 C 1401.316406 430.542969 1397.152344 436.933594 1387.332031 445.796875 C 1379.214844 451.410156 1379.214844 451.410156 1372.554688 454.738281 C 1362.945312 454.976562 1353.441406 455.046875 1343.832031 454.949219 L 1315.945312 454.738281 Z M 1339.253906 374.863281 L 1339.253906 434.769531 L 1365.894531 434.769531 C 1373.988281 428.546875 1378.015625 423.847656 1382.542969 414.800781 C 1383.65625 405.234375 1383.65625 405.234375 1382.542969 394.832031 C 1378.339844 385.507812 1378.339844 385.507812 1372.554688 378.191406 C 1363.164062 372.878906 1363.164062 372.878906 1339.253906 374.863281 " fill-opacity="1" fill-rule="nonzero"/><path fill="#43c7b6" d="M 906.359375 354.894531 L 929.667969 354.894531 L 932.996094 431.441406 L 959.636719 431.441406 C 963.644531 423.4375 963.644531 417.78125 964.019531 408.84375 L 964.441406 399.359375 L 964.84375 389.421875 L 965.273438 379.414062 C 965.628906 371.242188 965.972656 363.066406 966.296875 354.894531 L 989.605469 354.894531 C 990.09375 367.234375 990.386719 379.570312 990.648438 391.917969 L 991.070312 402.476562 C 991.46875 427.785156 991.46875 427.785156 986.164062 438.199219 C 979.449219 446.535156 972.945312 451.414062 963.382812 456.191406 C 950.9375 458.433594 941.96875 457.644531 929.667969 454.738281 C 920.304688 450.371094 920.304688 450.371094 913.019531 444.753906 C 908.179688 437.15625 906.402344 431.921875 905.601562 422.902344 C 905.636719 419.765625 905.667969 416.628906 905.707031 413.394531 L 905.773438 403.0625 L 905.941406 392.335938 L 906.03125 381.453125 C 906.113281 372.601562 906.21875 363.746094 906.359375 354.894531 " fill-opacity="1" fill-rule="nonzero"/><path fill="#33d5c4" d="M 1053.851562 353.945312 C 1062.867188 354.894531 1062.867188 354.894531 1073.273438 360.71875 C 1079.515625 368.207031 1079.515625 368.207031 1082.222656 375.695312 L 1082.847656 381.519531 C 1062.683594 382.167969 1062.683594 382.167969 1056.207031 381.519531 L 1049.546875 374.863281 L 1036.226562 374.863281 L 1032.898438 388.175781 C 1034.867188 388.78125 1036.835938 389.386719 1038.867188 390.003906 C 1053.492188 394.660156 1066.917969 399.09375 1079.515625 408.144531 C 1082.847656 414.800781 1082.847656 414.800781 1084.09375 425.828125 C 1082.847656 438.097656 1082.847656 438.097656 1075.980469 447.664062 C 1066.195312 454.738281 1066.195312 454.738281 1054.957031 457.859375 C 1041.40625 458.09375 1032.105469 456.605469 1019.578125 451.410156 C 1011.460938 443.089844 1011.460938 443.089844 1006.257812 434.769531 L 1006.257812 428.113281 C 1026.417969 427.464844 1026.417969 427.464844 1032.898438 428.113281 L 1039.554688 434.769531 C 1048.222656 433.703125 1048.222656 433.703125 1056.207031 431.441406 L 1052.875 421.457031 C 1043.832031 416.894531 1034.5625 413.390625 1025.117188 409.730469 C 1016.246094 404.816406 1016.246094 404.816406 1010.054688 396.59375 C 1006.257812 388.175781 1006.257812 388.175781 1006.671875 377.773438 C 1009.585938 368.207031 1009.585938 368.207031 1014.375 362.175781 C 1026.796875 352.738281 1038.707031 353.804688 1053.851562 353.945312 " fill-opacity="1" fill-rule="nonzero"/><path fill="#278286" d="M 553.378906 354.894531 L 578.773438 354.273438 L 586.648438 353.996094 C 598.882812 353.847656 606.589844 354.867188 618.183594 359.511719 L 626.640625 364.878906 C 631.492188 374.574219 631.03125 383.460938 630.945312 394.183594 C 629.96875 401.488281 629.96875 401.488281 623.726562 409.808594 C 609.523438 419.824219 597.144531 419.746094 580.019531 421.457031 L 576.691406 454.738281 L 553.378906 454.738281 Z M 582.3125 372.78125 L 576.691406 374.863281 C 576.554688 382.628906 576.554688 390.394531 576.691406 398.160156 L 580.019531 401.488281 C 587.824219 400.652344 595.605469 399.539062 603.332031 398.160156 L 606.660156 394.832031 C 606.792969 389.285156 606.804688 383.734375 606.660156 378.191406 C 594.972656 372.578125 594.972656 372.578125 582.3125 372.78125 " fill-opacity="1" fill-rule="nonzero"/><path fill="#40a59a" d="M 163.773438 328.269531 C 174.804688 328.894531 174.804688 328.894531 183.753906 331.597656 C 186.003906 339.15625 186.003906 339.15625 187.082031 348.238281 C 183.488281 354.464844 183.488281 354.464844 177.730469 360.417969 L 171.175781 367.339844 L 163.773438 374.863281 L 155.914062 383.183594 C 147.445312 392.066406 138.894531 400.871094 130.265625 409.601562 L 121.464844 418.769531 L 112.875 427.476562 L 105.1875 435.359375 C 97.175781 441.425781 97.175781 441.425781 86.617188 444.378906 L 77.195312 444.753906 L 70.535156 438.097656 C 70.417969 427.492188 70.417969 427.492188 73.863281 414.800781 C 80.203125 405.996094 87.773438 398.859375 95.71875 391.503906 L 102.136719 385.335938 C 115.015625 373.039062 128.121094 360.984375 141.800781 349.574219 C 148.007812 344.335938 148.007812 344.335938 155.863281 334.925781 Z M 163.773438 328.269531 " fill-opacity="1" fill-rule="nonzero"/><path fill="#30938b" d="M 716.550781 354.894531 L 776.488281 354.894531 L 776.488281 374.863281 L 743.1875 374.863281 L 739.859375 394.832031 L 773.160156 394.832031 L 773.160156 414.800781 L 743.1875 414.800781 L 739.859375 438.097656 L 776.488281 438.097656 L 779.820312 454.738281 L 716.550781 454.738281 Z M 716.550781 354.894531 " fill-opacity="1" fill-rule="nonzero"/><path fill="#1eead1" d="M 1236.023438 354.894531 L 1295.964844 354.894531 L 1295.964844 374.863281 L 1259.335938 371.535156 L 1259.335938 394.832031 L 1292.632812 394.832031 L 1292.632812 414.800781 C 1270.574219 415.214844 1270.574219 415.214844 1259.335938 411.472656 L 1259.335938 438.097656 L 1295.964844 438.097656 L 1299.292969 454.738281 L 1236.023438 454.738281 Z M 1236.023438 354.894531 " fill-opacity="1" fill-rule="nonzero"/><path fill="#41c7b6" d="M 359.535156 286.640625 L 366.902344 288.332031 L 373.5625 294.988281 C 374.785156 302.867188 374.785156 302.867188 373.5625 311.628906 C 367.96875 318.726562 367.96875 318.726562 360.660156 325.355469 C 352.472656 332.890625 346.484375 338.90625 340.261719 348.238281 L 333.601562 348.238281 C 332.820312 350.109375 332.039062 351.980469 331.238281 353.90625 C 325.921875 363.367188 319.316406 369.808594 311.542969 377.359375 L 303.292969 385.417969 L 296.972656 391.503906 L 287.398438 388.175781 C 277.753906 384.507812 277.753906 384.507812 270.332031 384.847656 C 265.875 383.804688 261.4375 382.695312 257.011719 381.519531 C 269.933594 368.195312 282.90625 354.925781 295.933594 341.703125 C 300.359375 337.199219 304.765625 332.679688 309.160156 328.144531 C 315.476562 321.628906 321.847656 315.167969 328.230469 308.714844 L 334.148438 302.539062 C 347.933594 288.753906 347.933594 288.753906 359.535156 286.640625 " fill-opacity="1" fill-rule="nonzero"/><path fill="#278286" d="M 646.621094 354.894531 L 669.929688 354.894531 L 669.929688 438.097656 L 703.230469 438.097656 L 703.230469 454.738281 L 646.621094 454.738281 Z M 646.621094 354.894531 " fill-opacity="1" fill-rule="nonzero"/><path fill="#2ef2e2" d="M 323.613281 175.175781 C 332.5625 178.296875 332.5625 178.296875 340.261719 181.832031 C 339.625 190.738281 339.625 190.738281 336.933594 201.800781 C 329.554688 210.679688 329.554688 210.679688 320.492188 219.066406 C 311.386719 227.585938 303.902344 234.675781 296.972656 245.066406 L 280.324219 238.410156 L 280.324219 245.066406 C 271.121094 247.054688 263.140625 248.394531 253.683594 248.394531 L 253.683594 238.410156 C 259.027344 231.828125 259.027344 231.828125 266.441406 224.449219 L 274.5 216.402344 L 283.027344 208.039062 L 291.4375 199.605469 C 312.289062 178.945312 312.289062 178.945312 323.613281 175.175781 " fill-opacity="1" fill-rule="nonzero"/><path fill="#38f3e4" d="M 350.253906 215.113281 C 359.203125 213.660156 359.203125 213.660156 366.902344 215.113281 L 373.5625 221.769531 C 374.867188 229.492188 374.867188 229.492188 373.5625 238.410156 C 367.609375 246.410156 367.609375 246.410156 359.34375 254.59375 L 350.375 263.535156 L 340.886719 272.734375 L 331.515625 282.125 C 314.453125 298.929688 314.453125 298.929688 306.960938 304.972656 L 296.972656 304.972656 C 303.214844 288.746094 303.214844 288.746094 306.960938 285.003906 C 306.5 280.425781 306.011719 275.847656 305.507812 271.273438 C 305.375 263.085938 305.375 263.085938 306.960938 255.050781 C 314.621094 245.605469 323.929688 239.023438 333.601562 231.753906 L 342.554688 221.980469 Z M 350.253906 215.113281 " fill-opacity="1" fill-rule="nonzero"/><path fill="#2a9f92" d="M 343.59375 448.082031 L 356.910156 448.082031 C 354.871094 457.9375 352.734375 462.660156 346.921875 471.378906 L 360.242188 474.707031 L 310.292969 524.628906 L 303.632812 521.300781 C 295.878906 520.949219 288.191406 521.09375 280.4375 521.199219 L 273.664062 521.300781 C 288.125 504.128906 303.25 487.558594 319.035156 471.589844 L 325.640625 464.6875 L 332.066406 458.183594 L 337.8125 452.292969 Z M 343.59375 448.082031 " fill-opacity="1" fill-rule="nonzero"/><path fill="#307c71" d="M 167.105469 408.144531 L 173.761719 408.144531 C 177.304688 413.96875 177.304688 413.96875 180.421875 421.457031 C 179.335938 429.171875 177.671875 433.960938 173.109375 440.304688 C 167.710938 446.085938 162.238281 451.796875 156.699219 457.445312 C 154.84375 459.472656 152.988281 461.503906 151.078125 463.601562 C 145.53125 469.261719 140.605469 473.941406 133.804688 478.035156 C 120.71875 477.660156 120.71875 477.660156 110.492188 474.707031 C 108.191406 468.867188 108.191406 468.867188 107.164062 461.394531 C 117.800781 444.3125 134.402344 430.066406 150.453125 418.128906 L 157.113281 418.128906 Z M 167.105469 408.144531 " fill-opacity="1" fill-rule="nonzero"/><path fill="#41c7b6" d="M 267.003906 314.957031 L 276.992188 328.269531 C 271.632812 341.828125 261.882812 350.785156 251.601562 360.71875 L 246.398438 365.828125 C 242.179688 369.960938 237.949219 374.082031 233.703125 378.191406 L 224.519531 374.679688 C 213.433594 370.507812 213.433594 370.507812 200.820312 374.445312 L 190.414062 378.191406 C 202.734375 363.214844 215.6875 348.90625 229.125 334.925781 L 233.835938 329.832031 C 238.410156 325.152344 238.410156 325.152344 247.023438 318.285156 C 254.382812 319.328125 254.382812 319.328125 260.34375 321.613281 Z M 267.003906 314.957031 " fill-opacity="1" fill-rule="nonzero"/><path fill="#39d6c6" d="M 463.472656 418.128906 L 470.132812 421.457031 L 453.480469 444.753906 L 460.140625 448.082031 C 455.621094 453.125 451.042969 458.117188 446.40625 463.058594 L 438.679688 471.480469 L 430.171875 478.035156 C 419.164062 478.96875 419.164062 478.96875 410.191406 478.035156 L 403.53125 461.394531 C 407.113281 457.074219 410.722656 452.777344 414.355469 448.496094 L 420.441406 441.242188 C 426.816406 434.796875 431.65625 431.167969 440.160156 428.113281 L 446.820312 431.441406 Z M 463.472656 418.128906 " fill-opacity="1" fill-rule="nonzero"/><path fill="#2f7b70" d="M 103.835938 391.503906 C 111.769531 392.308594 111.769531 392.308594 120.898438 394.414062 L 130.085938 396.46875 L 137.132812 398.160156 C 126.582031 411.078125 115.773438 423.320312 103.628906 434.769531 L 97.265625 440.804688 L 90.515625 444.753906 C 81.578125 443.921875 81.578125 443.921875 73.863281 441.425781 L 70.535156 438.097656 C 69.519531 430.335938 69.519531 430.335938 70.535156 421.457031 C 76.128906 414.964844 76.128906 414.964844 83.4375 409.1875 L 90.699219 403.320312 L 97.175781 398.160156 Z M 103.835938 391.503906 " fill-opacity="1" fill-rule="nonzero"/><path fill="#3ff3e5" d="M 359.34375 286.824219 L 366.902344 288.332031 L 373.5625 294.988281 C 374.761719 302.816406 374.761719 302.816406 373.5625 311.628906 C 368.199219 319.191406 368.199219 319.191406 361.074219 326.1875 L 354.046875 333.335938 L 346.921875 338.253906 L 333.601562 334.925781 L 350.253906 311.628906 L 345.011719 316.605469 L 337.972656 323.066406 L 331.066406 329.503906 C 322.871094 335.464844 316.925781 337.015625 306.960938 338.253906 C 312.339844 325.050781 321.449219 315.78125 331.316406 305.804688 L 336.09375 300.695312 C 343.660156 293.015625 348.558594 288.613281 359.34375 286.824219 " fill-opacity="1" fill-rule="nonzero"/><path fill="#30938b" d="M 260.34375 458.066406 C 268.667969 465.765625 268.667969 465.765625 276.992188 474.707031 L 276.992188 484.691406 C 270.292969 492.335938 270.292969 492.335938 261.386719 500.5 L 252.605469 508.765625 L 243.691406 514.644531 C 234.261719 513.863281 234.261719 513.863281 227.042969 511.316406 C 224.246094 504.203125 224.246094 504.203125 223.714844 494.675781 C 229.589844 487.308594 234.925781 481.570312 241.820312 475.332031 L 247.160156 470.265625 C 251.519531 466.160156 255.914062 462.09375 260.34375 458.066406 " fill-opacity="1" fill-rule="nonzero"/><path fill="#2d9f93" d="M 350.253906 511.316406 C 358.785156 510.277344 358.785156 510.277344 366.902344 511.316406 L 373.5625 517.972656 C 374.992188 525.605469 374.992188 525.605469 373.5625 534.613281 C 366.511719 543.519531 366.511719 543.519531 357.328125 552.296875 L 348.199219 561.199219 L 340.261719 567.894531 L 333.601562 567.894531 L 336.101562 560.40625 L 336.933594 551.253906 C 330.824219 543.480469 330.824219 543.480469 323.613281 537.941406 L 340.261719 521.300781 L 345.257812 515.269531 Z M 350.253906 511.316406 " fill-opacity="1" fill-rule="nonzero"/><path fill="#40f3e5" d="M 506.761719 431.441406 C 516.335938 431.652344 516.335938 431.652344 523.410156 434.769531 L 526.742188 438.097656 C 527.988281 445.378906 527.988281 445.378906 526.742188 454.738281 C 521.265625 463.359375 517.863281 468.597656 510.089844 474.707031 C 497.8125 478.035156 497.8125 478.035156 486.78125 478.035156 L 480.121094 471.378906 C 479.914062 462.226562 479.914062 462.226562 483.449219 451.410156 C 490.269531 443.164062 497.46875 436.773438 506.761719 431.441406 " fill-opacity="1" fill-rule="nonzero"/><path fill="#36968e" d="M 353.582031 584.535156 C 363.15625 584.746094 363.15625 584.746094 370.230469 587.863281 L 373.5625 591.191406 C 374.8125 598.472656 374.8125 598.472656 373.5625 607.832031 C 368.085938 616.453125 364.683594 621.691406 356.910156 627.800781 C 344.632812 631.128906 344.632812 631.128906 333.601562 631.128906 L 326.941406 624.472656 C 326.734375 615.320312 326.734375 615.320312 330.273438 604.503906 C 337.09375 596.257812 344.289062 589.867188 353.582031 584.535156 " fill-opacity="1" fill-rule="nonzero"/><path fill="#30938b" d="M 157.113281 354.894531 L 163.773438 354.894531 C 165.230469 363.425781 165.230469 363.425781 163.773438 374.863281 C 157.199219 383.824219 149.429688 391.589844 140.464844 398.160156 C 133.699219 400.789062 133.699219 400.789062 127.144531 401.488281 C 116.320312 396.707031 116.320312 396.707031 107.164062 391.503906 C 113.40625 383.289062 119.75 375.417969 127.144531 368.207031 C 135.886719 365.710938 135.886719 365.710938 143.792969 364.878906 C 148.316406 361.660156 152.757812 358.332031 157.113281 354.894531 " fill-opacity="1" fill-rule="nonzero"/><path fill="#33f3e3" d="M 257.640625 176.632812 L 263.671875 178.503906 C 265.964844 184.121094 265.964844 184.121094 267.003906 191.816406 C 262.703125 201.089844 257.988281 207.480469 250.769531 214.695312 L 243.691406 218.441406 C 234.746094 217.609375 234.746094 217.609375 227.042969 215.113281 L 223.714844 211.785156 C 222.464844 204.296875 222.464844 204.296875 223.714844 195.144531 C 231.414062 185.992188 231.414062 185.992188 240.363281 178.503906 C 250.351562 175.175781 250.351562 175.175781 257.640625 176.632812 " fill-opacity="1" fill-rule="nonzero"/><path fill="#37968f" d="M 90.515625 328.269531 C 98.839844 329.515625 98.839844 329.515625 107.164062 331.597656 L 110.492188 334.925781 C 110.289062 345.953125 110.289062 345.953125 107.164062 358.222656 C 97.800781 366.542969 97.800781 366.542969 87.183594 371.535156 C 79.277344 370.703125 79.277344 370.703125 73.863281 368.207031 C 71.160156 359.265625 71.160156 359.265625 70.535156 348.238281 C 78.441406 338.878906 78.441406 338.878906 87.183594 331.597656 Z M 90.515625 328.269531 " fill-opacity="1" fill-rule="nonzero"/><path fill="#44f4e5" d="M 386.882812 328.269531 C 397.496094 329.515625 397.496094 329.515625 406.863281 331.597656 C 409.570312 338.667969 409.570312 338.667969 410.191406 348.238281 C 405.382812 355.894531 399.839844 361.605469 393.542969 368.207031 C 387.296875 366.957031 387.296875 366.957031 380.222656 364.878906 L 373.5625 358.222656 C 364.957031 357.667969 364.957031 357.667969 356.910156 358.222656 C 360.019531 354.464844 363.144531 350.722656 366.277344 346.988281 L 371.546875 340.671875 C 376.890625 334.925781 376.890625 334.925781 386.882812 328.269531 " fill-opacity="1" fill-rule="nonzero"/><path fill="#4adacb" d="M 350.253906 308.300781 L 350.253906 318.285156 C 343.59375 327.230469 343.59375 327.230469 336.933594 334.925781 L 343.59375 338.253906 L 340.261719 348.238281 L 333.601562 348.238281 L 330.273438 358.222656 L 316.953125 354.894531 L 316.953125 348.238281 C 300.03125 354.8125 287.214844 360.410156 274.496094 373.613281 L 268.300781 379.984375 L 263.671875 384.847656 L 257.011719 381.519531 C 264.238281 373.835938 271.523438 366.210938 278.867188 358.636719 L 285.011719 352.070312 C 295.285156 341.535156 301.808594 335.539062 316.011719 330.765625 L 326.941406 328.269531 C 334.316406 323.53125 334.316406 323.53125 340.054688 317.867188 L 345.972656 312.433594 Z M 350.253906 308.300781 " fill-opacity="1" fill-rule="nonzero"/><path fill="#30938b" d="M 316.535156 485.523438 C 326.941406 488.019531 326.941406 488.019531 332.585938 493.167969 L 336.933594 498.003906 C 330.0625 508.089844 323.183594 516.96875 313.621094 524.628906 C 299.332031 526.707031 287.125 522.457031 273.664062 517.972656 C 299.125 488.890625 299.125 488.890625 316.535156 485.523438 " fill-opacity="1" fill-rule="nonzero"/><path fill="#3fb1a4" d="M 217.054688 348.238281 C 229.125 347.820312 229.125 347.820312 240.363281 348.238281 L 247.023438 364.878906 L 233.703125 378.191406 L 225.171875 374.445312 C 213.507812 370.554688 213.507812 370.554688 200.820312 374.445312 L 190.414062 378.191406 C 193.601562 374.445312 196.792969 370.703125 199.988281 366.957031 L 205.371094 360.640625 C 209.125 356.375 213.019531 352.242188 217.054688 348.238281 M 343.59375 448.082031 L 356.910156 448.082031 C 354.871094 457.9375 352.734375 462.660156 346.921875 471.378906 C 334.851562 472.003906 334.851562 472.003906 323.613281 471.378906 C 326.621094 467.460938 329.671875 463.578125 332.769531 459.730469 C 334.46875 457.566406 336.167969 455.402344 337.921875 453.175781 Z M 343.59375 448.082031 " fill-opacity="1" fill-rule="nonzero"/><path fill="#30938b" d="M 177.09375 401.488281 C 183.335938 402.320312 183.335938 402.320312 190.414062 404.816406 C 194.574219 411.683594 194.574219 411.683594 197.074219 418.128906 L 180.421875 428.113281 C 176.886719 422.289062 176.886719 422.289062 173.761719 414.800781 C 175.011719 407.3125 175.011719 407.3125 177.09375 401.488281 " fill-opacity="1" fill-rule="nonzero"/></svg>